<svg width="884" height="882" viewBox="0 0 884 882" fill="none" xmlns="http://www.w3.org/2000/svg">
<path d="M-0.000498531 664.293L-0.000498531 217.707C-0.404384 160.379 22.0278 105.238 62.3627 64.4112C102.697 23.5846 157.632 0.41571 215.084 0H668.824C726.276 0.41571 781.211 23.5846 821.546 64.4112C861.881 105.238 884.313 160.379 883.909 217.707V664.293C884.313 721.621 861.881 776.762 821.546 817.589C781.211 858.415 726.276 881.584 668.824 882H215.084C157.632 881.584 102.697 858.415 62.3627 817.589C22.0278 776.762 -0.404384 721.621 -0.000498531 664.293Z" fill="#007D3A"/>
<path d="M406.399 530.981L425.987 541.601C428.492 542.971 431.153 544.033 433.913 544.765C439.164 546.095 444.665 546.095 449.916 544.765C452.676 544.033 455.337 542.971 457.842 541.601L716.377 401.365C718.139 400.411 719.768 399.229 721.22 397.85C722.576 396.564 723.748 395.098 724.705 393.494C725.672 391.874 726.413 390.129 726.907 388.309C727.913 384.453 727.913 380.403 726.907 376.546C726.412 374.726 725.672 372.982 724.705 371.362C723.748 369.758 722.576 368.292 721.22 367.006C719.768 365.626 718.139 364.444 716.377 363.491L457.879 223.267C455.375 221.898 452.714 220.835 449.954 220.103C444.703 218.773 439.202 218.773 433.951 220.103C431.191 220.835 428.529 221.898 426.025 223.267L167.452 363.503C165.69 364.457 164.061 365.639 162.609 367.018C161.253 368.305 160.08 369.77 159.124 371.374C158.157 372.995 157.416 374.739 156.922 376.559C155.916 380.416 155.916 384.465 156.922 388.322C157.416 390.142 158.157 391.886 159.124 393.506C160.08 395.111 161.253 396.576 162.609 397.862C164.061 399.242 165.69 400.423 167.452 401.377L334.097 491.763C339.766 494.979 346.192 496.63 352.712 496.546C359.233 496.462 365.614 494.647 371.198 491.286L553.921 386.024C554.575 385.674 555.126 385.159 555.519 384.531C555.799 383.869 555.943 383.158 555.943 382.44C555.943 381.722 555.799 381.012 555.519 380.35C555.148 379.726 554.618 379.211 553.984 378.856L407.254 294.383C406.623 294.013 405.904 293.819 405.172 293.819C404.44 293.819 403.721 294.013 403.09 294.383C402.457 294.721 401.923 295.219 401.543 295.827C401.212 296.488 401.056 297.223 401.09 297.961V442.152L371.953 458.948V297.961C371.905 292.124 373.411 286.379 376.316 281.312C379.221 276.246 383.421 272.039 388.488 269.121C393.554 266.203 399.306 264.679 405.156 264.704C411.005 264.729 416.744 266.302 421.785 269.263L568.427 353.737C573.487 356.611 577.697 360.768 580.63 365.788C583.537 370.829 585.066 376.543 585.066 382.359C585.066 388.175 583.537 393.888 580.63 398.93C577.707 403.959 573.5 408.126 568.439 411.006L385.766 516.394C375.874 522.236 364.618 525.388 353.123 525.533C341.628 525.679 330.296 522.813 320.258 517.222L153.55 426.836C149.551 424.681 145.854 422.01 142.555 418.89C135.936 412.625 131.17 404.664 128.779 395.879C126.407 387.115 126.407 377.879 128.779 369.115C131.159 360.307 135.926 352.323 142.555 346.041C145.854 342.921 149.551 340.25 153.55 338.095L412.085 197.796C416.682 195.292 421.565 193.353 426.629 192.021C436.645 189.326 447.197 189.326 457.213 192.021C462.263 193.356 467.134 195.294 471.718 197.796L730.253 338.032C734.253 340.187 737.95 342.859 741.249 345.978C747.878 352.261 752.644 360.244 755.025 369.052C757.397 377.816 757.397 387.052 755.025 395.816C752.644 404.624 747.878 412.607 741.249 418.89C737.95 422.01 734.253 424.681 730.253 426.836L643.521 473.875V571.378C643.555 577.138 642.011 582.797 639.055 587.745C636.1 592.692 631.845 596.739 626.751 599.448L471.718 683.545C467.122 686.049 462.239 687.988 457.175 689.319C447.159 692.014 436.607 692.014 426.591 689.319C421.527 687.988 416.644 686.049 412.048 683.545L257.015 599.436C251.921 596.729 247.665 592.685 244.707 587.74C241.749 582.795 240.201 577.137 240.232 571.378V502.585L269.394 517.812V571.378C269.371 571.923 269.492 572.465 269.746 572.948C270.032 573.392 270.432 573.752 270.904 573.99L425.937 658.099C428.441 659.468 431.103 660.531 433.863 661.262C439.114 662.593 444.615 662.593 449.865 661.262C452.626 660.531 455.287 659.468 457.791 658.099L612.824 573.99C613.296 573.751 613.696 573.392 613.982 572.948C614.236 572.465 614.357 571.923 614.334 571.378V489.692L471.718 567.073C467.122 569.576 462.239 571.515 457.175 572.847C447.159 575.542 436.607 575.542 426.591 572.847C421.527 571.515 416.644 569.576 412.048 567.073L376.821 547.978L406.399 530.981Z" fill="white" stroke="white"/>
</svg>
